<?xml version="1.0" standalone="no"?>
<!DOCTYPE svg PUBLIC "-//W3C//DTD SVG 20010904//EN"
 "http://www.w3.org/TR/2001/REC-SVG-20010904/DTD/svg10.dtd">
<svg version="1.0" xmlns="http://www.w3.org/2000/svg"
 width="822.000000pt" height="822.000000pt" viewBox="0 0 822.000000 822.000000"
 preserveAspectRatio="xMidYMid meet">
<metadata>
Created by potrace 1.11, written by Peter Selinger 2001-2013
</metadata>
<g transform="translate(0.000000,822.000000) scale(0.100000,-0.100000)"
fill="#000000" stroke="none">
<path d="M2275 7741 c-3 -5 -1 -12 5 -16 5 -3 17 -32 26 -63 15 -52 15 -61 1
-107 -9 -27 -23 -79 -32 -115 -9 -36 -34 -119 -56 -185 -79 -243 -85 -366 -26
-505 42 -98 47 -163 22 -290 -16 -86 -14 -295 4 -375 18 -77 90 -195 166 -271
60 -60 61 -61 32 -88 -19 -18 -27 -35 -27 -59 0 -22 -8 -43 -25 -61 -26 -28
-25 -44 7 -85 26 -34 23 -43 -27 -92 -36 -35 -44 -49 -40 -67 18 -75 16 -98
-14 -156 -32 -60 -63 -102 -142 -196 -26 -30 -63 -81 -83 -113 l-37 -58 2
-132 c1 -72 6 -161 11 -196 9 -58 8 -70 -16 -130 -14 -36 -28 -79 -32 -96 -3
-16 -19 -47 -35 -67 -16 -20 -29 -40 -29 -43 0 -4 -20 -29 -44 -56 -83 -93
-124 -231 -141 -484 -4 -49 -8 -109 -11 -132 -8 -83 -6 -270 4 -333 6 -36 14
-95 16 -131 8 -96 17 -131 39 -163 12 -16 24 -53 28 -82 4 -28 25 -90 47 -136
39 -83 40 -87 46 -224 6 -152 12 -184 50 -249 37 -62 101 -114 202 -164 93
-46 148 -95 192 -171 40 -68 95 -140 143 -186 88 -83 243 -188 344 -232 55
-24 145 -65 200 -92 65 -32 119 -52 155 -56 65 -7 70 -11 126 -87 57 -76 81
-145 93 -263 6 -53 14 -101 18 -105 5 -5 18 -6 30 -3 33 9 54 75 60 189 6 113
-9 170 -69 260 -45 67 -155 176 -212 210 -26 15 -120 99 -207 186 -190 189
-214 228 -203 335 4 39 11 64 19 64 6 0 63 -45 126 -100 130 -113 151 -126
252 -145 154 -29 228 -73 294 -170 24 -36 52 -69 61 -72 9 -3 41 -16 70 -30
77 -36 92 -71 92 -214 0 -61 5 -129 12 -151 21 -71 126 -170 209 -197 68 -22
118 26 124 117 4 71 4 71 24 82 16 8 28 5 56 -14 56 -38 219 -70 251 -48 6 4
21 26 33 49 21 42 23 43 70 43 73 0 110 10 116 31 11 32 -22 110 -76 182 -56
74 -77 87 -142 87 -24 0 -56 9 -75 20 -18 11 -56 25 -83 31 -28 6 -53 17 -55
24 -3 7 4 28 15 46 12 19 21 41 21 49 0 8 16 33 36 55 20 22 48 57 61 78 14
20 29 37 33 37 4 0 24 -11 44 -25 21 -14 52 -32 70 -39 88 -37 912 -583 1188
-788 114 -84 247 -178 295 -208 48 -30 204 -130 346 -223 307 -200 371 -237
387 -221 19 19 -129 166 -385 383 -22 19 -85 75 -140 126 -55 51 -120 109
-145 131 -70 61 -105 92 -260 230 -80 72 -212 188 -295 259 -82 71 -152 132
-155 135 -35 40 -380 318 -663 534 -64 49 -119 96 -122 103 -12 33 56 263 78
263 25 0 130 -124 285 -338 13 -18 35 -40 48 -49 22 -14 27 -14 40 -1 19 19
21 43 29 303 5 197 14 287 28 301 2 3 21 -5 41 -17 34 -20 38 -20 61 -5 13 9
31 32 41 51 9 19 21 35 28 35 6 0 37 -14 69 -31 57 -30 59 -30 79 -12 12 10
36 42 55 71 18 28 37 52 41 52 5 0 17 -7 28 -15 31 -24 63 -19 75 13 23 58
-14 214 -59 248 -11 8 -46 13 -96 14 -67 0 -77 2 -66 14 8 11 18 12 36 6 29
-11 30 -3 9 85 -8 33 -15 77 -15 98 0 35 1 37 21 26 34 -18 46 2 31 54 -7 23
-20 78 -28 123 -16 80 -30 112 -112 243 -24 39 -41 75 -37 81 3 5 28 10 54 10
29 0 53 6 60 14 13 16 3 26 -49 46 -82 33 -251 166 -294 232 -15 23 -14 27 20
92 49 92 72 162 75 227 4 84 7 89 73 119 93 42 193 118 248 188 12 14 29 22
48 22 57 0 190 84 190 120 0 10 -20 42 -45 71 -55 65 -57 90 -13 185 59 130
36 241 -60 293 -25 13 -38 8 -65 -26 l-19 -23 -34 30 c-19 16 -45 30 -57 30
-49 0 -117 -66 -117 -114 0 -21 -32 -86 -42 -86 -16 0 -38 61 -37 107 0 26 6
84 13 127 8 50 12 142 10 252 l-4 173 46 98 c26 54 66 139 90 190 24 50 44
101 44 111 0 11 12 51 27 88 23 60 27 83 26 179 0 162 -34 347 -106 580 -41
135 -67 186 -150 297 -36 48 -68 101 -72 118 -13 61 -71 25 -150 -93 -62 -94
-231 -277 -316 -343 -56 -43 -94 -102 -112 -174 -3 -14 -12 -34 -20 -44 -14
-19 -15 -19 -63 -1 -27 10 -66 29 -87 42 -44 27 -57 23 -57 -18 0 -25 -4 -29
-28 -29 -31 0 -120 27 -139 42 -21 16 -78 11 -128 -11 -70 -31 -116 -36 -177
-18 -29 9 -71 18 -93 21 -31 4 -47 15 -77 50 -21 24 -55 51 -75 59 -43 17
-143 90 -189 138 -20 20 -34 28 -38 20 -13 -21 -31 -11 -91 47 -99 96 -345
306 -408 347 -34 22 -42 15 -38 -31 1 -18 1 -34 -2 -34 -2 0 -30 9 -63 20 -32
12 -88 27 -124 34 -36 8 -118 35 -182 60 -114 45 -171 56 -183 37z"/>
</g>
</svg>
